<svg width="150" height="45" viewBox="0 0 150 45" fill="none" xmlns="http://www.w3.org/2000/svg">
<path d="M144.663 0H5.25556C2.35549 0.00185797 0.00428856 2.38043 0 5.31675V39.6743C0.00366667 42.6123 2.3538 44.9938 5.25556 45H144.663C147.559 45 150 42.606 150 39.6754V5.31787C150 2.385 147.559 0 144.663 0Z" fill="black"/>
<path fill-rule="evenodd" clip-rule="evenodd" d="M32.4864 23.264C32.4532 19.7009 35.3508 17.9369 35.5792 17.7978L35.5887 17.792C33.8914 15.3136 31.2589 14.975 30.3339 14.948C28.9812 14.8055 27.6534 15.333 26.5684 15.764L26.5683 15.764C25.8799 16.0375 25.2892 16.2721 24.8519 16.2721C24.3541 16.2721 23.7463 16.0275 23.0653 15.7533C22.1747 15.3949 21.1587 14.986 20.0995 15.0076C17.6941 15.0448 15.4438 16.4386 14.2096 18.6031C11.6625 23.0165 13.5621 29.5021 16.0024 33.0706C17.2231 34.8166 18.6495 36.7674 20.5165 36.6987C21.3627 36.6638 21.963 36.4108 22.5832 36.1495C23.301 35.847 24.0454 35.5333 25.2285 35.5333C26.3436 35.5333 27.0563 35.8374 27.7404 36.1292C28.3961 36.409 29.0254 36.6775 29.9573 36.656C31.9165 36.6245 33.1496 34.901 34.3298 33.1381C35.7393 31.1356 36.3059 29.1646 36.3283 29.0634C36.2834 29.0476 32.5212 27.6121 32.4841 23.2651L32.4864 23.264ZM28.8895 12.6013C29.8719 11.3716 30.544 9.69875 30.3575 8C28.9356 8.06413 27.1573 8.9855 26.1333 10.1881C25.2274 11.249 24.4181 12.986 24.6271 14.6206C26.2233 14.7387 27.8643 13.8129 28.8895 12.6024V12.6013ZM55.5472 22.2616H53.7757L52.8056 19.2095H49.4335L48.5096 22.2616H46.7842L50.1248 11.8745H52.1885L55.5472 22.2616ZM52.5123 17.9303L51.6355 15.2191C51.5433 14.9401 51.3691 14.2887 51.1117 13.2616H51.0814C50.9802 13.7026 50.8161 14.3551 50.5902 15.2191L49.728 17.9303H52.5123ZM63.9864 18.4242C63.9864 19.6988 63.6425 20.7046 62.9546 21.4448C62.3386 22.103 61.572 22.4315 60.6593 22.4315C59.6746 22.4315 58.9653 22.0782 58.5348 21.3683H58.5034V25.3126H56.8398V17.2373C56.8398 16.4352 56.8196 15.614 56.7791 14.7713H58.2403L58.3348 15.9582H58.3651C58.9204 15.0661 59.7623 14.6195 60.8919 14.6195C61.7754 14.6195 62.5106 14.9682 63.1018 15.668C63.693 16.3677 63.9875 17.2835 63.9875 18.4242H63.9864ZM62.2925 18.4861C62.2925 17.7571 62.1284 17.1552 61.8002 16.6827C61.4739 16.2066 60.9291 15.9281 60.3524 15.9425C59.941 15.9425 59.5678 16.0775 59.2351 16.3508C58.9013 16.6208 58.6843 16.9808 58.5798 17.4196C58.5346 17.5859 58.509 17.757 58.5034 17.9292V19.178C58.5034 19.7213 58.6697 20.1826 59.0036 20.5572C59.3374 20.9318 59.7713 21.1197 60.3052 21.1197C60.9313 21.1197 61.418 20.8767 61.7664 20.3941C62.1149 19.9115 62.2914 19.2747 62.2914 18.4838L62.2925 18.4861ZM72.6707 18.4242C72.6707 19.6988 72.3268 20.7046 71.6388 21.4448C71.0229 22.103 70.2563 22.4315 69.3436 22.4315C68.3589 22.4315 67.6496 22.0782 67.2191 21.3683H67.1877V25.3126H65.5241V17.2373C65.5241 16.4352 65.5039 15.614 65.4634 14.7713H66.9246L67.0191 15.9582H67.0494C67.6036 15.0661 68.4455 14.6195 69.5751 14.6195C70.4586 14.6195 71.1937 14.9682 71.785 15.668C72.3762 16.3677 72.6707 17.2835 72.6707 18.4242ZM70.9768 18.485C70.9766 17.7565 70.8136 17.155 70.4856 16.6827C70.1593 16.2066 69.6145 15.9281 69.0378 15.9425C68.6276 15.9425 68.2544 16.0775 67.9217 16.3508C67.5878 16.6208 67.3709 16.9808 67.2663 17.4196C67.2204 17.5858 67.194 17.7569 67.1877 17.9292V19.178C67.1877 19.7213 67.3563 20.1826 67.689 20.5572C68.0217 20.9318 68.4567 21.1197 68.9906 21.1197C69.6167 21.1197 70.1034 20.8767 70.4519 20.3941C70.8024 19.9106 70.9766 19.2753 70.9768 18.485ZM83.9133 19.3507C83.9129 20.233 83.6049 20.9525 82.9916 21.5067C82.3138 22.1142 81.373 22.4157 80.1635 22.4157C79.0474 22.4157 78.1515 22.202 77.4726 21.7688L77.8581 20.3817C78.5865 20.825 79.3868 21.0455 80.2613 21.0455C80.8908 21.0455 81.3775 20.9037 81.7271 20.6202C82.0755 20.339 82.2509 19.9587 82.2509 19.484C82.2509 19.0632 82.107 18.7077 81.8192 18.4208C81.5315 18.134 81.0549 17.864 80.3883 17.6165C78.5708 16.937 77.6614 15.9447 77.6614 14.6375C77.6614 13.7825 77.9795 13.085 78.6169 12.5382C79.2531 11.9948 80.1006 11.7203 81.1572 11.7203C82.1014 11.7203 82.8882 11.8846 83.5143 12.2131L83.0984 13.571C82.5139 13.2526 81.8507 13.0928 81.1122 13.0928C80.5277 13.0928 80.0702 13.2368 79.7409 13.5248C79.4644 13.7836 79.325 14.0952 79.325 14.4642C79.325 14.8771 79.4846 15.2157 79.8038 15.4823C80.0804 15.7298 80.5828 15.9965 81.3123 16.2845C82.2059 16.6445 82.8635 17.0652 83.2839 17.5478C83.6994 18.0312 83.913 18.6325 83.9133 19.3507ZM83.9133 19.3507C83.9133 19.3512 83.9133 19.3518 83.9133 19.3523V19.349C83.9133 19.3495 83.9133 19.3501 83.9133 19.3507ZM89.3019 16.019H87.4698V19.6561C87.4698 20.5808 87.7924 21.0432 88.4387 21.0432C88.7377 21.0432 88.9827 21.0173 89.1783 20.9667L89.2233 22.2301C88.895 22.3538 88.4645 22.4146 87.9306 22.4146C87.2742 22.4146 86.7616 22.2121 86.3907 21.8127C86.022 21.4122 85.8377 20.7395 85.8377 19.7933V16.0178H84.7429V14.7691H85.8377V13.3966L87.4698 12.905V14.7691H89.3019V16.0178V16.019ZM97.495 18.4557C97.495 19.6032 97.1657 20.5505 96.5092 21.2907C95.8213 22.0512 94.9075 22.4315 93.7689 22.4315C92.6695 22.4315 91.795 22.067 91.1431 21.3368C90.4912 20.6067 90.1652 19.6887 90.1652 18.5806C90.1652 17.4185 90.5024 16.4678 91.1735 15.7287C91.8445 14.9885 92.7505 14.6195 93.8902 14.6195C94.9895 14.6195 95.8719 14.9828 96.5385 15.713C97.1758 16.4217 97.4939 17.3352 97.4939 18.4546L97.495 18.4557ZM95.7708 18.5086C95.7708 17.819 95.6201 17.2261 95.3234 16.7311C94.9749 16.1348 94.4759 15.8345 93.8284 15.8345C93.1619 15.8345 92.6538 16.1337 92.3054 16.7311C92.0075 17.2261 91.8591 17.8291 91.8591 18.539C91.8591 19.2297 92.0086 19.8215 92.3054 20.3165C92.665 20.9127 93.1686 21.2131 93.8149 21.2131C94.4511 21.2131 94.9502 20.9093 95.3099 20.3018C95.6134 19.7978 95.7708 19.1993 95.7708 18.5097V18.5086ZM103.039 16.2361L103.037 16.2357V14.6476C102.915 14.6285 102.776 14.6172 102.623 14.6172C102.191 14.6172 101.791 14.75 101.42 15.0166C101.04 15.317 100.764 15.7107 100.588 16.2057H100.543L100.482 14.7725H99.0338C99.0743 15.4812 99.0968 16.2676 99.0968 17.1293L99.0799 22.2616H100.743V18.332C100.743 17.7357 100.882 17.243 101.159 16.8526C101.477 16.4105 101.928 16.1911 102.515 16.1911C102.701 16.1911 102.873 16.2056 103.037 16.2357V16.2361H103.039ZM110.367 18.1632C110.367 18.4613 110.347 18.7122 110.306 18.917H105.317C105.34 19.6572 105.579 20.222 106.041 20.6135C106.463 20.9622 107.005 21.1377 107.673 21.1377C108.413 21.1377 109.085 21.0196 109.691 20.7833L109.953 21.9376C109.245 22.2458 108.407 22.3988 107.443 22.3988C106.283 22.3988 105.371 22.058 104.709 21.3751C104.047 20.6922 103.717 19.7753 103.717 18.6245C103.717 17.495 104.025 16.5545 104.641 15.8052C105.286 15.0031 106.158 14.6037 107.257 14.6037C108.336 14.6037 109.151 15.0031 109.705 15.8052C110.147 16.4408 110.369 17.2261 110.369 18.1621L110.367 18.1632ZM108.783 17.7312C108.794 17.2385 108.685 16.8121 108.459 16.451C108.171 15.9897 107.73 15.758 107.133 15.758C106.591 15.758 106.149 15.983 105.81 16.4363C105.526 16.8119 105.355 17.2608 105.317 17.7301H108.783V17.7312ZM113.633 11.5966C113.189 13.1491 112.666 14.4226 112.061 15.4182L111.03 15.5262C111.479 14.2932 111.805 13.0355 112 11.7507L113.632 11.5966H113.633ZM120.407 22.2616H118.93L118.852 21.0601H118.807C118.335 21.9736 117.534 22.4326 116.405 22.4326C115.501 22.4326 114.752 22.0782 114.157 21.3683C113.561 20.6596 113.263 19.7393 113.263 18.6087C113.263 17.3971 113.589 16.415 114.234 15.6657C114.86 14.9682 115.63 14.6195 116.544 14.6195C117.55 14.6195 118.253 14.957 118.653 15.6353H118.683V11.3345H120.347V20.2422C120.347 20.9735 120.367 21.6451 120.407 22.2616ZM118.682 19.1003V17.8538C118.682 17.6378 118.666 17.4623 118.637 17.3296C118.549 16.9371 118.337 16.5831 118.033 16.3193C117.727 16.0481 117.33 15.9023 116.921 15.911C116.302 15.911 115.815 16.1585 115.459 16.6501C115.103 17.1428 114.924 17.7751 114.924 18.5457C114.924 19.2848 115.093 19.8867 115.434 20.3491C115.793 20.8418 116.279 21.0893 116.887 21.0893C117.433 21.0893 117.872 20.8835 118.202 20.4728C118.522 20.0903 118.681 19.6347 118.681 19.1003H118.682ZM128.045 22.2616H126.552L126.429 21.3976H126.384C125.87 22.0861 125.142 22.4303 124.196 22.4303C123.488 22.4303 122.918 22.2053 122.488 21.752C122.097 21.3413 121.901 20.8328 121.901 20.2265C121.901 19.313 122.283 18.6132 123.048 18.1306C123.814 17.6491 124.891 17.4128 126.274 17.4218V17.2846C126.274 16.298 125.757 15.8052 124.723 15.8052C123.985 15.8052 123.335 15.9897 122.772 16.3598L122.435 15.2652C123.132 14.8332 123.986 14.6183 125.002 14.6183C126.958 14.6183 127.938 15.6511 127.938 17.7166V20.4751C127.938 21.2243 127.974 21.8206 128.046 22.2638L128.045 22.2616ZM126.32 19.6876V18.5322C124.482 18.5018 123.564 19.0047 123.564 20.0431C123.564 20.4346 123.672 20.7271 123.885 20.9206C124.099 21.1175 124.372 21.2153 124.698 21.2153C125.065 21.2153 125.406 21.0995 125.716 20.8666C126.026 20.6371 126.217 20.3412 126.289 19.9823C126.312 19.8991 126.32 19.8023 126.32 19.6898V19.6876ZM136.484 22.2616H134.821V17.972C134.821 16.6501 134.318 15.9886 133.311 15.9886C132.819 15.9886 132.419 16.1708 132.111 16.5342C131.803 16.8976 131.648 17.3262 131.648 17.819V22.2627H129.984V16.9133C129.984 16.2552 129.964 15.5408 129.923 14.7702H131.387L131.463 15.9402H131.508C131.704 15.578 131.992 15.2765 132.372 15.0368C132.825 14.7562 133.348 14.6102 133.881 14.6161C134.578 14.6161 135.16 14.8411 135.621 15.2945C136.197 15.8502 136.484 16.6782 136.484 17.7773V22.2616ZM49.1886 27.6031C49.3006 27.4861 49.3613 27.3292 49.3572 27.1672C49.3572 27.1674 49.3572 27.1676 49.3572 27.1678V27.1666C49.3572 27.1668 49.3572 27.167 49.3572 27.1672C49.3595 27.0084 49.3017 26.8547 49.1953 26.7369C49.0852 26.6176 48.9424 26.5569 48.7682 26.5569C48.6078 26.5584 48.4546 26.6236 48.3422 26.7381C48.2298 26.8527 48.1676 27.0072 48.1691 27.1678C48.1659 27.3281 48.2266 27.4831 48.3377 27.5986C48.446 27.7156 48.5988 27.781 48.7581 27.7786C48.9199 27.7836 49.0763 27.7199 49.1886 27.6031ZM48.1691 35.6131H49.3459L49.3471 35.6143V28.259H48.1691V35.6131ZM56.0834 35.612H56.0845L56.0834 35.6131V35.612ZM56.0834 35.612V32.4373C56.0834 31.661 55.8788 31.076 55.4742 30.6823C55.1471 30.3616 54.7357 30.2008 54.2411 30.2008C53.8499 30.2008 53.4925 30.3009 53.1733 30.5C52.9046 30.6688 52.6989 30.8803 52.564 31.139H52.5303L52.4741 30.311H51.44C51.4681 30.8566 51.4816 31.3618 51.4816 31.8275V35.6143H52.6618V32.4699C52.6618 32.1189 52.7709 31.8174 52.9878 31.5586C53.1967 31.3052 53.5106 31.1624 53.8387 31.1716C54.5513 31.1716 54.9065 31.6408 54.9065 32.5745V35.612H56.0834ZM61.8205 35.612H62.8658V35.6109C62.8366 35.1755 62.8231 34.6996 62.8231 34.1821V27.8743H61.6462V30.9196H61.6238C61.3394 30.4393 60.8414 30.1996 60.1288 30.1996C59.4825 30.1996 58.9373 30.4471 58.4933 30.9421C58.0358 31.4743 57.8077 32.1684 57.8077 33.0268C57.8077 33.8278 58.0167 34.4758 58.4394 34.9786C58.862 35.4815 59.3903 35.7324 60.031 35.7324C60.8313 35.7324 61.3978 35.4095 61.7305 34.7615H61.7643L61.8205 35.612ZM61.6451 32.4913V33.3755H61.6429C61.6429 33.7535 61.5282 34.0764 61.3034 34.3464C61.0707 34.6366 60.7594 34.7829 60.3738 34.7829C59.9433 34.7829 59.6005 34.6085 59.3453 34.2598C59.1037 33.9324 58.9834 33.506 58.9834 32.9818C58.9834 32.4361 59.1093 31.9895 59.3611 31.6408C59.614 31.2909 59.9591 31.1154 60.3974 31.1154C60.6869 31.1097 60.9678 31.2133 61.1843 31.4056C61.4971 31.6769 61.6671 32.0776 61.6451 32.4913ZM66.0176 29.24C66.1566 29.1064 66.2319 28.9197 66.2244 28.727L66.2222 28.7293C66.2288 28.5399 66.1539 28.3568 66.0165 28.2264C65.8782 28.0981 65.7063 28.0306 65.5039 28.0306C65.314 28.0258 65.1298 28.0961 64.9914 28.2264C64.8541 28.3565 64.7789 28.539 64.7845 28.7281C64.7793 28.9157 64.8507 29.0973 64.9822 29.231C65.1137 29.3648 65.294 29.4391 65.4815 29.4369C65.6793 29.4455 65.8723 29.3746 66.0176 29.24ZM64.9172 35.612H66.0941V30.3099H64.9172V35.612ZM70.616 31.3145C70.7405 31.3139 70.8647 31.3252 70.987 31.3483V30.2233C70.9004 30.2098 70.8015 30.2008 70.6925 30.2008C70.3867 30.2008 70.1035 30.2953 69.8405 30.4843C69.5718 30.6946 69.3762 30.9759 69.2526 31.3246H69.2211L69.1762 30.3121H68.1533C68.1814 30.8128 68.196 31.3696 68.196 31.9805L68.1848 35.6143H69.3627V32.831C69.3627 32.4091 69.4617 32.0593 69.6572 31.7825C69.8854 31.472 70.2035 31.3145 70.616 31.3145ZM73.5936 29.24C73.7326 29.1064 73.8079 28.9197 73.8004 28.727L73.7982 28.7293C73.8048 28.5399 73.7299 28.3568 73.5925 28.2264C73.4542 28.0981 73.2823 28.0306 73.0799 28.0306C72.89 28.0258 72.7058 28.0961 72.5674 28.2264C72.4301 28.3565 72.3549 28.539 72.3605 28.7281C72.3553 28.9157 72.4267 29.0973 72.5582 29.231C72.6897 29.3648 72.87 29.4391 73.0574 29.4369C73.2553 29.4455 73.4483 29.3746 73.5936 29.24ZM72.4932 35.612H73.67V30.3099H72.4932V35.612ZM80.3637 35.612H80.3648L80.3637 35.6131V35.612ZM80.3637 35.612V32.4373C80.3637 31.661 80.158 31.076 79.7533 30.6823C79.4262 30.3616 79.0148 30.2008 78.5203 30.2008C78.1431 30.1966 77.7726 30.3004 77.4524 30.5C77.1827 30.6688 76.977 30.8803 76.8421 31.139H76.8106L76.7544 30.311H75.718C75.7473 30.8566 75.763 31.3618 75.763 31.8275V35.6143H76.941V32.4699C76.941 32.1189 77.05 31.8174 77.267 31.5586C77.4764 31.3053 77.7906 31.1626 78.119 31.1716C78.8305 31.1716 79.1846 31.6408 79.1846 32.5745V35.612H80.3637Z" fill="white"/>
</svg>
