<svg width="24" height="24" viewBox="0 0 24 24" fill="none" xmlns="http://www.w3.org/2000/svg">
<path fill-rule="evenodd" clip-rule="evenodd" d="M2 0.697266H22C23.1046 0.697266 24 1.54067 24 2.58105V21.4189C24 22.4593 23.1046 23.3027 22 23.3027H2C0.89543 23.3027 0 22.4593 0 21.4189V2.58105C0 1.54067 0.89543 0.697266 2 0.697266ZM6.40514 13.0163C6.40514 12.3838 6.09064 11.9915 5.55514 11.7754C5.95464 11.5592 6.26914 11.287 6.26914 10.6785C6.26914 9.74181 5.66564 9.22141 4.18664 9.22141H1.31364V14.8257H4.16964C5.66564 14.8257 6.40514 14.1612 6.40514 13.0163ZM4.65414 10.8867C4.65414 11.1509 4.51814 11.327 4.13564 11.327H2.89464V10.4463H4.13564C4.52664 10.4463 4.65414 10.6385 4.65414 10.8867ZM4.79014 13.0483C4.79014 13.3686 4.60314 13.6007 4.19514 13.6007H2.89464V12.5119H4.20364C4.59464 12.5119 4.79014 12.7201 4.79014 13.0483ZM11.4966 14.8257V13.4727H8.86164V9.22141H7.19564V14.8257H11.4966ZM17.2426 12.0155C17.2426 10.1501 16.1121 9.13334 14.4971 9.13334C12.8821 9.13334 11.7346 10.1661 11.7346 12.0316C11.7346 13.897 12.8651 14.9138 14.4801 14.9138C16.0951 14.9138 17.2426 13.881 17.2426 12.0155ZM15.5341 12.0316C15.5341 13.0403 15.1601 13.5607 14.4971 13.5607C13.8341 13.5607 13.4431 13.0243 13.4431 12.0155C13.4431 11.0068 13.8171 10.4864 14.4801 10.4864C15.1431 10.4864 15.5341 11.0228 15.5341 12.0316ZM23.1501 12.4319V11.7513H20.5321V12.9122H21.6116C21.5436 13.2965 21.3141 13.6007 20.6171 13.6007C19.8521 13.6007 19.4696 13.1364 19.4696 12.0235C19.4696 11.1349 19.7331 10.4864 20.5066 10.4864C21.0761 10.4864 21.3141 10.7746 21.5096 11.255L23.0056 10.7025C22.5806 9.65374 22.0026 9.13334 20.5151 9.13334C18.7131 9.13334 17.7441 10.3663 17.7441 12.0235C17.7441 13.8569 18.8576 14.9138 20.4896 14.9138C22.2151 14.9138 23.1501 14.0331 23.1501 12.4319Z" fill="white"/>
</svg>
