<svg width="142" height="45" viewBox="0 0 142 45" fill="none" xmlns="http://www.w3.org/2000/svg">
<path d="M136.948 0H4.97526C2.22986 0.00185797 0.00405983 2.38043 0 5.31675V39.6743C0.00347111 42.6123 2.22826 44.9938 4.97526 45H136.948C139.689 45 142 42.606 142 39.6754V5.31787C142 2.385 139.689 0 136.948 0Z" fill="black"/>
<path d="M11.2747 7.95863C10.9155 8.40195 10.7383 8.96488 10.7789 9.53363V34.4186C10.7406 34.9928 10.9309 35.5589 11.3085 35.9936L11.3874 36.0836L25.3148 22.1449V21.8074L11.3536 7.87988L11.2747 7.95863Z" fill="url(#paint0_linear_8498_3592)"/>
<path d="M29.935 26.7911L25.3151 22.1449V21.8074L29.935 17.1611L30.0364 17.2286L35.5691 20.3561C37.1466 21.2449 37.1466 22.7074 35.5691 23.6074L30.059 26.7349L29.935 26.7911Z" fill="url(#paint1_linear_8498_3592)"/>
<path d="M30.0701 26.7241L25.3149 21.9766L11.2748 35.9941C11.9318 36.5779 12.9123 36.611 13.6073 36.0728L30.0701 26.7241Z" fill="url(#paint2_linear_8498_3592)"/>
<path d="M30.0701 17.2286L13.6073 7.8911C12.9165 7.34517 11.9327 7.37363 11.2748 7.9586L25.3149 21.9761L30.0701 17.2286Z" fill="url(#paint3_linear_8498_3592)"/>
<path opacity="0.2" d="M29.9349 26.6221L13.6073 35.9033C12.9404 36.4058 12.0206 36.4058 11.3537 35.9033L11.2748 35.9821L11.3537 36.0721C12.0206 36.5746 12.9404 36.5746 13.6073 36.0721L30.0701 26.7233L29.9349 26.6221Z" fill="black"/>
<path opacity="0.12" d="M11.2747 35.8363C10.9128 35.39 10.7354 34.8225 10.7789 34.25V34.4188C10.7406 34.9929 10.9309 35.559 11.3085 35.9937L11.3874 35.915L11.2747 35.8363Z" fill="black"/>
<path opacity="0.12" d="M35.5689 23.4391L29.9348 26.6228L30.0362 26.7241L35.5689 23.5966C36.2342 23.3157 36.6924 22.6942 36.7633 21.9766C36.6205 22.6258 36.1771 23.1686 35.5689 23.4391Z" fill="black"/>
<g opacity="0.25">
<mask id="path-9-inside-1_8498_3592" fill="white">
<path d="M13.6072 8.04818L35.5689 20.5132C36.1771 20.7836 36.6205 21.3264 36.7633 21.9757C36.6924 21.258 36.2342 20.6365 35.5689 20.3557L13.6072 7.89068C12.041 6.99068 10.7789 7.73318 10.7789 9.53318V9.70193C10.7789 7.90193 12.041 7.15943 13.6072 8.04818Z"/>
</mask>
<path d="M13.6072 8.04818L35.5689 20.5132C36.1771 20.7836 36.6205 21.3264 36.7633 21.9757C36.6924 21.258 36.2342 20.6365 35.5689 20.3557L13.6072 7.89068C12.041 6.99068 10.7789 7.73318 10.7789 9.53318V9.70193C10.7789 7.90193 12.041 7.15943 13.6072 8.04818Z" fill="white"/>
<path d="M13.6072 8.04818L14.1009 7.1785L14.1008 7.17845L13.6072 8.04818ZM35.5689 20.5132L35.0753 21.3829L35.1179 21.407L35.1627 21.4269L35.5689 20.5132ZM36.7633 21.9757L35.7867 22.1906L37.7585 21.8773L36.7633 21.9757ZM35.5689 20.3557L35.0753 21.2254L35.1261 21.2542L35.18 21.277L35.5689 20.3557ZM13.6072 7.89068L13.109 8.75775L13.1136 8.76036L13.6072 7.89068ZM13.1136 8.91786L35.0753 21.3829L36.0625 19.6435L14.1009 7.1785L13.1136 8.91786ZM35.1627 21.4269C35.4809 21.5685 35.7122 21.8522 35.7867 22.1906L37.74 21.7608C37.5287 20.8007 36.8733 19.9987 35.9752 19.5994L35.1627 21.4269ZM37.7585 21.8773C37.6515 20.7944 36.9601 19.8575 35.9578 19.4344L35.18 21.277C35.5082 21.4155 35.7334 21.7217 35.7682 22.074L37.7585 21.8773ZM36.0625 19.486L14.1009 7.021L13.1136 8.76036L35.0753 21.2254L36.0625 19.486ZM14.1055 7.02363C13.1384 6.46793 12.0308 6.29399 11.102 6.83556C10.1754 7.37584 9.77893 8.42327 9.77893 9.53318H11.7789C11.7789 8.8431 12.0135 8.61927 12.1094 8.56331C12.2032 8.50863 12.5098 8.41344 13.109 8.75774L14.1055 7.02363ZM9.77893 9.53318V9.70193H11.7789V9.53318H9.77893ZM11.7789 9.70193C11.7789 9.01261 12.0131 8.78709 12.1112 8.72962C12.2077 8.6731 12.5156 8.5785 13.1137 8.91792L14.1008 7.17845C13.1327 6.62912 12.0264 6.46139 11.1003 7.00394C10.1758 7.54553 9.77893 8.59126 9.77893 9.70193H11.7789Z" fill="white" mask="url(#path-9-inside-1_8498_3592)"/>
</g>
<path fill-rule="evenodd" clip-rule="evenodd" d="M68.7581 18.5887C68.7499 16.2804 70.6153 14.4012 72.9273 14.3888C74.0476 14.3674 75.1285 14.8007 75.9229 15.5895C76.7173 16.3784 77.1571 17.4553 77.1416 18.5738C77.1416 20.8822 75.2694 22.7546 72.9573 22.7587C70.6452 22.7629 68.7664 20.8971 68.7581 18.5887ZM71.2172 20.3671C71.6603 20.8432 72.2766 21.1214 72.9273 21.1388V21.1051C73.5739 21.0904 74.1878 20.8182 74.6323 20.3491C75.0767 19.88 75.3149 19.2529 75.2936 18.6076C75.3546 17.7267 74.9185 16.8853 74.163 16.4264C73.4074 15.9674 72.4585 15.9674 71.703 16.4264C70.9474 16.8853 70.5113 17.7267 70.5723 18.6076C70.5418 19.2568 70.7742 19.8909 71.2172 20.3671ZM59.5858 18.5887C59.5776 16.2804 61.443 14.4012 63.755 14.3888C64.8753 14.3674 65.9563 14.8007 66.7506 15.5895C67.545 16.3784 67.9848 17.4553 67.9693 18.5738C67.9693 20.8822 66.0971 22.7546 63.785 22.7587C61.4729 22.7629 59.5941 20.8971 59.5858 18.5887ZM62.045 20.3671C62.488 20.8432 63.1043 21.1214 63.755 21.1388V21.1051C64.4016 21.0904 65.0155 20.8182 65.46 20.3491C65.9044 19.88 66.1426 19.2529 66.1214 18.6076C66.1823 17.7267 65.7462 16.8853 64.9907 16.4264C64.2351 15.9674 63.2862 15.9674 62.5307 16.4264C61.7751 16.8853 61.339 17.7267 61.4 18.6076C61.3695 19.2568 61.6019 19.8909 62.045 20.3671ZM52.8474 17.4488V15.6713L58.752 15.6601C58.8205 16.031 58.8507 16.408 58.8421 16.7851C58.8917 18.3152 58.3419 19.8043 57.3096 20.9363C56.1334 22.1535 54.4955 22.8157 52.8024 22.7588C49.1905 22.7591 46.2485 19.8621 46.1992 16.2563C46.2668 12.6638 49.2034 9.78693 52.8024 9.78756C54.4851 9.7516 56.1108 10.3968 57.3096 11.5763L56.0476 12.8251C55.1897 11.9992 54.0391 11.5461 52.8474 11.5651C50.3264 11.688 48.3457 13.7645 48.3457 16.2844C48.3457 18.8044 50.3264 20.8809 52.8474 21.0038C54.0768 21.0554 55.2698 20.5806 56.1265 19.6988C56.703 19.0849 57.0458 18.2888 57.0955 17.4488H52.8474ZM93.8861 14.3888C95.5229 14.4381 96.9543 15.5032 97.4694 17.0551L97.6948 17.5501L92.0607 19.8001C92.4115 20.5991 93.2157 21.1032 94.089 21.0713C94.9263 21.0831 95.7087 20.6562 96.151 19.9463L97.5821 20.9026C96.8033 22.0672 95.4915 22.7643 94.089 22.7588C92.9756 22.7744 91.9038 22.3373 91.1196 21.5481C90.3355 20.7588 89.9064 19.6852 89.931 18.5738C89.8756 17.4888 90.2667 16.4283 91.0135 15.6381C91.7603 14.8479 92.798 14.3966 93.8861 14.3888ZM92.3256 16.7544C91.9094 17.2168 91.7034 17.8306 91.7564 18.4501L95.5088 16.8976C95.2161 16.3165 94.6038 15.9666 93.9537 16.0088C93.3312 16.0221 92.7418 16.292 92.3256 16.7544ZM89.0183 22.5001H87.2492L87.2041 10.2038H89.0183V22.5001ZM84.173 15.3226H84.2406L84.1955 14.6251H85.9759V22.1513C85.9759 25.2451 84.1504 26.5052 81.9869 26.5052C80.3634 26.5162 78.896 25.541 78.2797 24.0413L79.8798 23.3663C80.1972 24.2578 81.0393 24.8557 81.9869 24.8626C82.6332 24.9038 83.2635 24.6509 83.7013 24.1744C84.1391 23.698 84.3373 23.0494 84.2406 22.4101V21.8026H84.173C83.6022 22.4409 82.7758 22.7916 81.9193 22.7588C79.6043 22.7588 77.7276 20.8851 77.7276 18.5738C77.7276 16.2625 79.6043 14.3888 81.9193 14.3888C82.7716 14.3535 83.5962 14.6951 84.173 15.3226ZM82.107 21.1045C81.4669 21.0803 80.8624 20.8027 80.4274 20.3327C79.9889 19.859 79.7591 19.2294 79.7896 18.5851C79.756 17.9366 79.9837 17.3017 80.4219 16.822C80.8601 16.3422 81.4724 16.0575 82.1222 16.0313C82.7646 16.0597 83.3678 16.348 83.7929 16.8297C84.2181 17.3114 84.4285 17.9452 84.3758 18.5851C84.429 19.2293 84.2116 19.8666 83.7757 20.3445C83.3465 20.815 82.7434 21.0893 82.107 21.1045ZM101.695 10.2038H106.101C107.146 10.1705 108.16 10.5563 108.918 11.275C109.676 11.9936 110.114 12.9854 110.135 14.0288C110.114 15.0713 109.676 16.0619 108.918 16.7788C108.159 17.4957 107.145 17.8789 106.101 17.8426H103.532V22.5001H101.695V10.2038ZM103.532 16.1326H106.101H106.146C106.938 16.1903 107.695 15.8014 108.109 15.1249C108.522 14.4484 108.522 13.5979 108.109 12.9215C107.695 12.245 106.938 11.856 106.146 11.9138H103.532V16.1326ZM114.18 16.2451C114.801 15.0231 116.089 14.2852 117.459 14.3663H117.504C119.611 14.3663 121.234 15.5813 121.211 17.7638V22.5001H119.442V21.5326C118.922 22.3581 117.982 22.823 117.008 22.7363C116.24 22.795 115.481 22.5393 114.905 22.028C114.329 21.5168 113.986 20.7938 113.955 20.0251C113.955 18.2251 115.746 17.2576 117.504 17.2576C118.171 17.2615 118.828 17.4234 119.42 17.7301V17.6063C119.251 16.8215 118.627 16.2146 117.836 16.0671C117.046 15.9196 116.244 16.2603 115.803 16.9313L114.18 16.2451ZM115.791 20.0701C115.791 20.8126 116.637 21.1163 117.234 21.1163L117.279 21.1051C118.391 21.0686 119.309 20.2277 119.442 19.1251C118.919 18.8504 118.331 18.7222 117.741 18.7538C116.839 18.7538 115.791 19.1251 115.791 20.0701ZM125.595 19.9576L127.702 14.6251H129.741L124.738 26.2238H122.823L124.648 22.0726L121.369 14.6251H123.341L125.527 19.9576H125.595ZM112.986 22.5001H111.149V10.2038H112.986V22.5001ZM53.2307 36.1913C54.4916 34.7857 54.4916 32.6581 53.2307 31.2526C52.5588 30.5977 51.6445 30.2512 50.7066 30.2963H48.5544V37.1251H50.7066C51.6412 37.1761 52.5551 36.838 53.2307 36.1913ZM59.3493 31.1401V30.2963H55.3491V37.1251H59.3493V36.3038H56.228V34.1326H59.0451V33.3113H56.228V31.1401H59.3493ZM65.1186 35.6288L61.7381 30.2963H60.6113V37.1251H61.5917V31.5001L65.0848 37.1251H65.9975V30.2963H65.1186V35.6288ZM74.9782 37.1251L72.3866 30.2738H71.395L68.8146 37.1251H69.7836L70.4597 35.2688H73.3444L73.9979 37.1251H74.9782ZM76.7586 36.3038V30.2963H75.8684V37.1251H79.7221V36.3038H76.7586ZM81.5589 37.1251V30.2963H80.6799V37.1251H81.5589ZM87.6437 35.6288L84.2632 30.2963H83.1364V37.1251H84.1167V31.5001L87.6099 37.1251H88.5226V30.2963H87.6437V35.6288ZM49.4333 31.1401H50.7066C51.4044 31.0973 52.0859 31.3619 52.5714 31.864C53.057 32.3661 53.2979 33.0553 53.2307 33.7501C53.2775 34.4327 53.0271 35.1023 52.5436 35.5872C52.0601 36.0721 51.3905 36.3251 50.7066 36.2813H49.4333V31.1401ZM70.7527 34.4476L71.8795 31.3538L73.0063 34.4476H70.7527ZM47.1233 32.4563V30.2963H46.312V32.4563H47.1233Z" fill="white"/>
<path d="M72.9273 14.3888L72.9279 14.4888L72.9292 14.4888L72.9273 14.3888ZM68.7581 18.5887L68.6581 18.5891V18.5891L68.7581 18.5887ZM75.9229 15.5895L75.8525 15.6605L75.9229 15.5895ZM77.1416 18.5738L77.0416 18.5724V18.5738L77.1416 18.5738ZM72.9573 22.7587L72.9575 22.8587L72.9573 22.7587ZM72.9273 21.1388L72.9247 21.2388L73.0273 21.2415V21.1388H72.9273ZM71.2172 20.3671L71.144 20.4352V20.4352L71.2172 20.3671ZM72.9273 21.1051L72.9251 21.0051L72.8273 21.0073V21.1051H72.9273ZM74.6323 20.3491L74.7049 20.4179L74.6323 20.3491ZM75.2936 18.6076L75.1934 18.6006L75.1937 18.6108L75.2936 18.6076ZM71.703 16.4264L71.7549 16.5118L71.703 16.4264ZM70.5723 18.6076L70.6728 18.6123L70.672 18.6007L70.5723 18.6076ZM63.755 14.3888L63.7556 14.4888L63.7569 14.4888L63.755 14.3888ZM59.5858 18.5887L59.4858 18.5891V18.5891L59.5858 18.5887ZM66.7506 15.5895L66.8211 15.5186L66.7506 15.5895ZM67.9693 18.5738L67.8693 18.5724V18.5738L67.9693 18.5738ZM63.785 22.7587L63.7852 22.8587L63.785 22.7587ZM63.755 21.1388L63.7524 21.2388L63.855 21.2415V21.1388H63.755ZM62.045 20.3671L61.9717 20.4352V20.4352L62.045 20.3671ZM63.755 21.1051L63.7528 21.0051L63.655 21.0073V21.1051H63.755ZM65.46 20.3491L65.5326 20.4179L65.46 20.3491ZM66.1214 18.6076L66.0211 18.6006L66.0214 18.6108L66.1214 18.6076ZM64.9907 16.4264L65.0426 16.3409L64.9907 16.4264ZM62.5307 16.4264L62.4788 16.3409L62.5307 16.4264ZM61.4 18.6076L61.5006 18.6123L61.4997 18.6007L61.4 18.6076ZM52.8474 15.6713L52.8473 15.5713L52.7474 15.5715V15.6713H52.8474ZM52.8474 17.4488H52.7474V17.5488H52.8474V17.4488ZM58.752 15.6601L58.8503 15.6419L58.8352 15.5599L58.7518 15.5601L58.752 15.6601ZM58.8421 16.7851L58.742 16.7828L58.7422 16.7883L58.8421 16.7851ZM57.3096 20.9363L57.3816 21.0058L57.3835 21.0037L57.3096 20.9363ZM52.8024 22.7588L52.8057 22.6588L52.8024 22.6588L52.8024 22.7588ZM46.1992 16.2563L46.0992 16.2544L46.0992 16.2577L46.1992 16.2563ZM52.8024 9.78756L52.8024 9.88758L52.8045 9.88754L52.8024 9.78756ZM57.3096 11.5763L57.38 11.6474L57.452 11.5761L57.3798 11.505L57.3096 11.5763ZM56.0476 12.8251L55.9783 12.8971L56.0486 12.9648L56.1179 12.8961L56.0476 12.8251ZM52.8474 11.5651L52.8459 11.465L52.8426 11.4652L52.8474 11.5651ZM52.8474 21.0038L52.8426 21.1037L52.8433 21.1037L52.8474 21.0038ZM56.1265 19.6988L56.1982 19.7685L56.1994 19.7673L56.1265 19.6988ZM57.0955 17.4488L57.1954 17.4547L57.2016 17.3488H57.0955V17.4488ZM97.4694 17.0551L97.374 17.0867L97.3784 17.0965L97.4694 17.0551ZM93.8861 14.3888L93.8891 14.2888L93.8854 14.2888L93.8861 14.3888ZM97.6948 17.5501L97.7319 17.6429L97.8292 17.604L97.7858 17.5086L97.6948 17.5501ZM92.0607 19.8001L92.0236 19.7072L91.9275 19.7456L91.9691 19.8403L92.0607 19.8001ZM94.089 21.0713L94.0904 20.9712L94.0853 20.9714L94.089 21.0713ZM96.151 19.9463L96.2066 19.8632L96.1208 19.8058L96.0662 19.8934L96.151 19.9463ZM97.5821 20.9026L97.6652 20.9581L97.7208 20.875L97.6377 20.8194L97.5821 20.9026ZM94.089 22.7588L94.0894 22.6588L94.0876 22.6588L94.089 22.7588ZM91.1196 21.5481L91.0487 21.6185L91.1196 21.5481ZM89.931 18.5738L90.0312 18.576L90.0309 18.5687L89.931 18.5738ZM91.0135 15.6381L90.9408 15.5694L91.0135 15.6381ZM91.7564 18.4501L91.6568 18.4586L91.6685 18.5947L91.7947 18.5425L91.7564 18.4501ZM92.3256 16.7544L92.3999 16.8213L92.3256 16.7544ZM95.5088 16.8976L95.547 16.99L95.6465 16.9488L95.5981 16.8526L95.5088 16.8976ZM93.9537 16.0088L93.9559 16.1089L93.9602 16.1086L93.9537 16.0088ZM87.2492 22.5001L87.1492 22.5004L87.1495 22.6001H87.2492V22.5001ZM89.0183 22.5001V22.6001H89.1183V22.5001H89.0183ZM87.2041 10.2038V10.1038H87.1037L87.1041 10.2042L87.2041 10.2038ZM89.0183 10.2038H89.1183V10.1038H89.0183V10.2038ZM84.2406 15.3226V15.4226H84.3473L84.3404 15.3161L84.2406 15.3226ZM84.173 15.3226L84.0993 15.3902L84.1291 15.4226H84.173V15.3226ZM84.1955 14.6251V14.5251H84.0888L84.0957 14.6315L84.1955 14.6251ZM85.9759 14.6251H86.0759V14.5251H85.9759V14.6251ZM81.9869 26.5052V26.4052L81.9863 26.4052L81.9869 26.5052ZM78.2797 24.0413L78.2408 23.9492L78.1496 23.9877L78.1872 24.0793L78.2797 24.0413ZM79.8798 23.3663L79.974 23.3328L79.9385 23.233L79.8409 23.2742L79.8798 23.3663ZM81.9869 24.8626L81.9933 24.7626L81.9877 24.7626L81.9869 24.8626ZM83.7013 24.1744L83.7749 24.2421H83.7749L83.7013 24.1744ZM84.2406 22.4101H84.1406V22.4176L84.1417 22.425L84.2406 22.4101ZM84.2406 21.8026H84.3406V21.7026H84.2406V21.8026ZM84.173 21.8026V21.7026H84.1282L84.0984 21.7359L84.173 21.8026ZM81.9193 22.7588L81.9232 22.6588H81.9193V22.7588ZM81.9193 14.3888V14.4889L81.9235 14.4887L81.9193 14.3888ZM82.107 21.1045L82.1032 21.2047L82.1094 21.2045L82.107 21.1045ZM80.4274 20.3327L80.354 20.4006V20.4006L80.4274 20.3327ZM79.7896 18.5851L79.89 18.5898L79.8895 18.5799L79.7896 18.5851ZM80.4219 16.822L80.4957 16.8894L80.4219 16.822ZM82.1222 16.0313L82.1266 15.931L82.1181 15.9314L82.1222 16.0313ZM83.7929 16.8297L83.7179 16.8959V16.8959L83.7929 16.8297ZM84.3758 18.5851L84.2761 18.5769L84.2755 18.5851L84.2761 18.5933L84.3758 18.5851ZM83.7757 20.3445L83.8496 20.4119L83.7757 20.3445ZM106.101 10.2038V10.3039L106.104 10.3038L106.101 10.2038ZM101.695 10.2038V10.1038H101.595V10.2038H101.695ZM108.918 11.275L108.987 11.2024V11.2024L108.918 11.275ZM110.135 14.0288L110.235 14.0308L110.235 14.0268L110.135 14.0288ZM108.918 16.7788L108.849 16.7062V16.7062L108.918 16.7788ZM106.101 17.8426L106.104 17.7426H106.101V17.8426ZM103.532 17.8426V17.7426H103.432V17.8426H103.532ZM103.532 22.5001V22.6001H103.632V22.5001H103.532ZM101.695 22.5001H101.595V22.6001H101.695V22.5001ZM103.532 16.1326H103.432V16.2326H103.532V16.1326ZM106.146 16.1326L106.153 16.0326H106.146V16.1326ZM108.109 15.1249L108.023 15.0728L108.109 15.1249ZM108.109 12.9215L108.023 12.9736V12.9736L108.109 12.9215ZM106.146 11.9138V12.0141L106.153 12.0135L106.146 11.9138ZM103.532 11.9138V11.8138H103.432V11.9138H103.532ZM117.459 14.3663L117.453 14.4663H117.459V14.3663ZM114.18 16.2451L114.091 16.1998L114.042 16.2954L114.141 16.3372L114.18 16.2451ZM121.211 17.7638L121.111 17.7628V17.7638H121.211ZM121.211 22.5001V22.6001H121.311V22.5001H121.211ZM119.442 22.5001H119.342V22.6001H119.442V22.5001ZM119.442 21.5326H119.542V21.1865L119.358 21.4792L119.442 21.5326ZM117.008 22.7363L117.017 22.6367L117.009 22.636L117.001 22.6366L117.008 22.7363ZM113.955 20.0251H113.855L113.855 20.0291L113.955 20.0251ZM117.504 17.2576L117.505 17.1576H117.504V17.2576ZM119.42 17.7301L119.374 17.8189L119.52 17.8945V17.7301H119.42ZM119.42 17.6063H119.52V17.5957L119.518 17.5853L119.42 17.6063ZM117.836 16.0671L117.855 15.9688L117.836 16.0671ZM115.803 16.9313L115.764 17.0234L115.84 17.0559L115.886 16.9863L115.803 16.9313ZM117.234 21.1163V21.2163H117.246L117.258 21.2133L117.234 21.1163ZM117.279 21.1051L117.276 21.0051L117.265 21.0055L117.255 21.008L117.279 21.1051ZM119.442 19.1251L119.542 19.137L119.55 19.0686L119.489 19.0365L119.442 19.1251ZM117.741 18.7538V18.854L117.746 18.8537L117.741 18.7538ZM127.702 14.6251V14.5251H127.634L127.609 14.5883L127.702 14.6251ZM125.595 19.9576V20.0576H125.663L125.688 19.9943L125.595 19.9576ZM129.741 14.6251L129.833 14.6647L129.894 14.5251H129.741V14.6251ZM124.738 26.2238V26.3238H124.804L124.83 26.2634L124.738 26.2238ZM122.823 26.2238L122.731 26.1836L122.67 26.3238H122.823V26.2238ZM124.648 22.0726L124.74 22.1128L124.758 22.0725L124.74 22.0323L124.648 22.0726ZM121.369 14.6251V14.5251H121.216L121.278 14.6654L121.369 14.6251ZM123.341 14.6251L123.434 14.5871L123.408 14.5251H123.341V14.6251ZM125.527 19.9576L125.435 19.9955L125.46 20.0576H125.527V19.9576ZM111.149 22.5001H111.049V22.6001H111.149V22.5001ZM112.986 22.5001V22.6001H113.086V22.5001H112.986ZM111.149 10.2038V10.1038H111.049V10.2038H111.149ZM112.986 10.2038H113.086V10.1038H112.986V10.2038ZM53.2307 31.2526L53.3053 31.1856L53.3005 31.1809L53.2307 31.2526ZM53.2307 36.1913L53.3 36.2638L53.3051 36.2581L53.2307 36.1913ZM50.7066 30.2963V30.3964L50.7114 30.3962L50.7066 30.2963ZM48.5544 30.2963V30.1963H48.4544V30.2963H48.5544ZM48.5544 37.1251H48.4544V37.2251H48.5544V37.1251ZM50.7066 37.1251L50.7121 37.0251H50.7066V37.1251ZM59.3493 30.2963H59.4493V30.1963H59.3493V30.2963ZM59.3493 31.1401V31.2401H59.4493V31.1401H59.3493ZM55.3491 30.2963V30.1963H55.2491V30.2963H55.3491ZM55.3491 37.1251H55.2491V37.2251H55.3491V37.1251ZM59.3493 37.1251V37.2251H59.4493V37.1251H59.3493ZM59.3493 36.3038H59.4493V36.2038H59.3493V36.3038ZM56.228 36.3038H56.128V36.4038H56.228V36.3038ZM56.228 34.1326V34.0326H56.128V34.1326H56.228ZM59.0451 34.1326V34.2326H59.1451V34.1326H59.0451ZM59.0451 33.3113H59.1451V33.2113H59.0451V33.3113ZM56.228 33.3113H56.128V33.4113H56.228V33.3113ZM56.228 31.1401V31.0401H56.128V31.1401H56.228ZM61.7381 30.2963L61.8226 30.2428L61.7931 30.1963H61.7381V30.2963ZM65.1186 35.6288L65.0341 35.6823L65.2186 35.9733V35.6288H65.1186ZM60.6113 30.2963V30.1963H60.5113V30.2963H60.6113ZM60.6113 37.1251H60.5113V37.2251H60.6113V37.1251ZM61.5917 37.1251V37.2251H61.6917V37.1251H61.5917ZM61.5917 31.5001L61.6766 31.4473L61.4917 31.1495V31.5001H61.5917ZM65.0848 37.1251L64.9998 37.1778L65.0292 37.2251H65.0848V37.1251ZM65.9975 37.1251V37.2251H66.0975V37.1251H65.9975ZM65.9975 30.2963H66.0975V30.1963H65.9975V30.2963ZM65.1186 30.2963V30.1963H65.0186V30.2963H65.1186ZM72.3866 30.2738L72.4801 30.2384L72.4557 30.1738H72.3866V30.2738ZM74.9782 37.1251V37.2251H75.123L75.0718 37.0897L74.9782 37.1251ZM71.395 30.2738V30.1738H71.3258L71.3014 30.2386L71.395 30.2738ZM68.8146 37.1251L68.721 37.0898L68.67 37.2251H68.8146V37.1251ZM69.7836 37.1251V37.2251H69.8536L69.8776 37.1593L69.7836 37.1251ZM70.4597 35.2688V35.1688H70.3897L70.3658 35.2346L70.4597 35.2688ZM73.3444 35.2688L73.4387 35.2356L73.4152 35.1688H73.3444V35.2688ZM73.9979 37.1251L73.9036 37.1583L73.9271 37.2251H73.9979V37.1251ZM76.7586 30.2963H76.8586V30.1963H76.7586V30.2963ZM76.7586 36.3038H76.6586V36.4038H76.7586V36.3038ZM75.8684 30.2963V30.1963H75.7684V30.2963H75.8684ZM75.8684 37.1251H75.7684V37.2251H75.8684V37.1251ZM79.7221 37.1251V37.2251H79.8221V37.1251H79.7221ZM79.7221 36.3038H79.8221V36.2038H79.7221V36.3038ZM81.5589 30.2963H81.6589V30.1963H81.5589V30.2963ZM81.5589 37.1251V37.2251H81.6589V37.1251H81.5589ZM80.6799 30.2963V30.1963H80.5799V30.2963H80.6799ZM80.6799 37.1251H80.5799V37.2251H80.6799V37.1251ZM84.2632 30.2963L84.3477 30.2428L84.3182 30.1963H84.2632V30.2963ZM87.6437 35.6288L87.5592 35.6823L87.7437 35.9733V35.6288H87.6437ZM83.1364 30.2963V30.1963H83.0364V30.2963H83.1364ZM83.1364 37.1251H83.0364V37.2251H83.1364V37.1251ZM84.1167 37.1251V37.2251H84.2167V37.1251H84.1167ZM84.1167 31.5001L84.2017 31.4473L84.0167 31.1495V31.5001H84.1167ZM87.6099 37.1251L87.5249 37.1778L87.5543 37.2251H87.6099V37.1251ZM88.5226 37.1251V37.2251H88.6226V37.1251H88.5226ZM88.5226 30.2963H88.6226V30.1963H88.5226V30.2963ZM87.6437 30.2963V30.1963H87.5437V30.2963H87.6437ZM50.7066 31.1401V31.2402L50.7127 31.2399L50.7066 31.1401ZM49.4333 31.1401V31.0401H49.3333V31.1401H49.4333ZM53.2307 33.7501L53.1311 33.7404L53.1303 33.7487L53.1309 33.7569L53.2307 33.7501ZM52.5436 35.5872L52.6144 35.6578H52.6144L52.5436 35.5872ZM50.7066 36.2813L50.713 36.1813H50.7066V36.2813ZM49.4333 36.2813H49.3333V36.3813H49.4333V36.2813ZM71.8795 31.3538L71.9735 31.3196L71.8795 31.0616L71.7855 31.3196L71.8795 31.3538ZM70.7527 34.4476L70.6587 34.4133L70.6098 34.5476H70.7527V34.4476ZM73.0063 34.4476V34.5476H73.1492L73.1003 34.4133L73.0063 34.4476ZM47.1233 30.2963H47.2233V30.1963H47.1233V30.2963ZM47.1233 32.4563V32.5563H47.2233V32.4563H47.1233ZM46.312 30.2963V30.1963H46.212V30.2963H46.312ZM46.312 32.4563H46.212V32.5563H46.312V32.4563ZM72.9268 14.2888C70.5597 14.3015 68.6497 16.2254 68.6581 18.5891L68.8581 18.5884C68.8501 16.3353 70.6708 14.5009 72.9279 14.4888L72.9268 14.2888ZM75.9934 15.5186C75.1798 14.7106 74.0727 14.2669 72.9254 14.2888L72.9292 14.4888C74.0224 14.4679 75.0773 14.8907 75.8525 15.6605L75.9934 15.5186ZM77.2416 18.5752C77.2575 17.4295 76.807 16.3265 75.9934 15.5186L75.8525 15.6605C76.6276 16.4302 77.0567 17.4811 77.0416 18.5724L77.2416 18.5752ZM72.9575 22.8587C75.3246 22.8545 77.2416 20.9375 77.2416 18.5738L77.0416 18.5738C77.0416 20.8269 75.2143 22.6547 72.9572 22.6587L72.9575 22.8587ZM68.6581 18.5891C68.6666 20.9528 70.5904 22.863 72.9575 22.8587L72.9572 22.6587C70.7001 22.6628 68.8662 20.8414 68.8581 18.5884L68.6581 18.5891ZM72.93 21.0388C72.3061 21.0221 71.7152 20.7555 71.2905 20.299L71.144 20.4352C71.6054 20.931 72.2471 21.2206 72.9247 21.2388L72.93 21.0388ZM72.8273 21.1051V21.1388H73.0273V21.1051H72.8273ZM74.5597 20.2803C74.1336 20.73 73.545 20.991 72.9251 21.0051L72.9296 21.205C73.6028 21.1898 74.242 20.9064 74.7049 20.4179L74.5597 20.2803ZM75.1937 18.6108C75.214 19.2295 74.9858 19.8306 74.5597 20.2803L74.7049 20.4179C75.1677 19.9294 75.4157 19.2764 75.3936 18.6043L75.1937 18.6108ZM74.111 16.5118C74.8347 16.9514 75.2523 17.7571 75.1939 18.6007L75.3934 18.6145C75.457 17.6962 75.0024 16.8193 74.2149 16.3409L74.111 16.5118ZM71.7549 16.5118C72.4786 16.0722 73.3874 16.0722 74.111 16.5118L74.2149 16.3409C73.4274 15.8625 72.4385 15.8625 71.6511 16.3409L71.7549 16.5118ZM70.672 18.6007C70.6136 17.7571 71.0313 16.9514 71.7549 16.5118L71.6511 16.3409C70.8636 16.8193 70.4089 17.6962 70.4725 18.6145L70.672 18.6007ZM71.2905 20.299C70.8657 19.8425 70.6429 19.2346 70.6722 18.6123L70.4724 18.6029C70.4406 19.279 70.6827 19.9393 71.144 20.4352L71.2905 20.299ZM63.7545 14.2888C61.3874 14.3015 59.4774 16.2254 59.4858 18.5891L59.6858 18.5884C59.6778 16.3353 61.4985 14.5009 63.7556 14.4888L63.7545 14.2888ZM66.8211 15.5186C66.0075 14.7106 64.9004 14.2669 63.7531 14.2888L63.7569 14.4888C64.8501 14.4679 65.905 14.8907 66.6802 15.6605L66.8211 15.5186ZM68.0693 18.5752C68.0852 17.4295 67.6347 16.3265 66.8211 15.5186L66.6802 15.6605C67.4553 16.4302 67.8844 17.4811 67.8693 18.5724L68.0693 18.5752ZM63.7852 22.8587C66.1523 22.8545 68.0693 20.9375 68.0693 18.5738L67.8693 18.5738C67.8693 20.8269 66.042 22.6547 63.7849 22.6587L63.7852 22.8587ZM59.4858 18.5891C59.4943 20.9528 61.4181 22.863 63.7852 22.8587L63.7849 22.6587C61.5278 22.6628 59.6939 20.8414 59.6858 18.5884L59.4858 18.5891ZM63.7577 21.0388C63.1338 21.0221 62.5429 20.7555 62.1182 20.299L61.9717 20.4352C62.4331 20.931 63.0748 21.2206 63.7524 21.2388L63.7577 21.0388ZM63.655 21.1051V21.1388H63.855V21.1051H63.655ZM65.3874 20.2803C64.9613 20.73 64.3727 20.991 63.7528 21.0051L63.7573 21.205C64.4305 21.1898 65.0698 20.9064 65.5326 20.4179L65.3874 20.2803ZM66.0214 18.6108C66.0418 19.2295 65.8135 19.8306 65.3874 20.2803L65.5326 20.4179C65.9954 19.9294 66.2434 19.2764 66.2213 18.6043L66.0214 18.6108ZM64.9387 16.5118C65.6624 16.9514 66.08 17.7571 66.0216 18.6007L66.2211 18.6145C66.2847 17.6962 65.8301 16.8193 65.0426 16.3409L64.9387 16.5118ZM62.5826 16.5118C63.3063 16.0722 64.2151 16.0722 64.9387 16.5118L65.0426 16.3409C64.2551 15.8625 63.2662 15.8625 62.4788 16.3409L62.5826 16.5118ZM61.4997 18.6007C61.4413 17.7571 61.859 16.9514 62.5826 16.5118L62.4788 16.3409C61.6913 16.8193 61.2366 17.6962 61.3002 18.6145L61.4997 18.6007ZM62.1182 20.299C61.6934 19.8425 61.4706 19.2346 61.4999 18.6123L61.3001 18.6029C61.2683 19.279 61.5104 19.9393 61.9717 20.4352L62.1182 20.299ZM52.7474 15.6713V17.4488H52.9474V15.6713H52.7474ZM58.7518 15.5601L52.8473 15.5713L52.8476 15.7713L58.7522 15.7601L58.7518 15.5601ZM58.9421 16.7873C58.9508 16.4034 58.9201 16.0196 58.8503 15.6419L58.6536 15.6782C58.7209 16.0424 58.7506 16.4125 58.7421 16.7828L58.9421 16.7873ZM57.3835 21.0037C58.4334 19.8525 58.9925 18.338 58.9421 16.7818L58.7422 16.7883C58.7909 18.2923 58.2505 19.7562 57.2357 20.8689L57.3835 21.0037ZM52.799 22.8588C54.5203 22.9166 56.1856 22.2433 57.3815 21.0058L57.2377 20.8668C56.0811 22.0636 54.4706 22.7148 52.8057 22.6589L52.799 22.8588ZM46.0992 16.2577C46.1493 19.9183 49.1359 22.8592 52.8024 22.8588L52.8024 22.6588C49.245 22.6591 46.3478 19.8058 46.2992 16.2549L46.0992 16.2577ZM52.8024 9.68756C49.1491 9.68692 46.1678 12.6073 46.0992 16.2544L46.2992 16.2582C46.3657 12.7203 49.2577 9.88694 52.8024 9.88756L52.8024 9.68756ZM57.3798 11.505C56.1617 10.3066 54.5099 9.65105 52.8002 9.68758L52.8045 9.88754C54.4603 9.85215 56.06 10.487 57.2395 11.6476L57.3798 11.505ZM56.1179 12.8961L57.38 11.6474L57.2393 11.5052L55.9773 12.754L56.1179 12.8961ZM52.849 11.665C54.0143 11.6466 55.1394 12.0896 55.9783 12.8971L56.117 12.753C55.24 11.9088 54.0639 11.4457 52.8459 11.4651L52.849 11.665ZM48.4457 16.2844C48.4457 13.818 50.3844 11.7853 52.8523 11.6649L52.8426 11.4652C50.2684 11.5907 48.2457 13.711 48.2457 16.2844H48.4457ZM52.8523 20.9039C50.3844 20.7836 48.4457 18.7509 48.4457 16.2844H48.2457C48.2457 18.8579 50.2684 20.9782 52.8426 21.1037L52.8523 20.9039ZM56.0548 19.6291C55.2179 20.4905 54.0526 20.9543 52.8516 20.9039L52.8433 21.1037C54.101 21.1565 55.3216 20.6707 56.1982 19.7685L56.0548 19.6291ZM56.9957 17.4429C56.9474 18.2596 56.6141 19.0335 56.0536 19.6304L56.1994 19.7673C56.7919 19.1363 57.1443 18.3181 57.1954 17.4547L56.9957 17.4429ZM52.8474 17.5488H57.0955V17.3488H52.8474V17.5488ZM97.5643 17.0236C97.036 15.4318 95.5677 14.3394 93.8891 14.2889L93.8831 14.4888C95.478 14.5368 96.8727 15.5747 97.3745 17.0866L97.5643 17.0236ZM97.7858 17.5086L97.5604 17.0136L97.3784 17.0965L97.6038 17.5915L97.7858 17.5086ZM92.0978 19.8929L97.7319 17.6429L97.6577 17.4572L92.0236 19.7072L92.0978 19.8929ZM94.0853 20.9714C93.2529 21.0017 92.4866 20.5213 92.1523 19.7599L91.9691 19.8403C92.3365 20.677 93.1784 21.2046 94.0926 21.1712L94.0853 20.9714ZM96.0662 19.8934C95.6424 20.5736 94.8927 20.9826 94.0904 20.9713L94.0876 21.1713C94.9599 21.1836 95.775 20.7389 96.2359 19.9992L96.0662 19.8934ZM97.6377 20.8194L96.2066 19.8632L96.0955 20.0295L97.5265 20.9857L97.6377 20.8194ZM94.0886 22.8588C95.5246 22.8644 96.8678 22.1507 97.6652 20.9581L97.499 20.847C96.7389 21.9837 95.4584 22.6641 94.0894 22.6588L94.0886 22.8588ZM91.0487 21.6185C91.852 22.427 92.9499 22.8747 94.0904 22.8588L94.0876 22.6588C93.0013 22.674 91.9556 22.2476 91.1906 21.4776L91.0487 21.6185ZM89.831 18.5716C89.8058 19.7102 90.2454 20.81 91.0487 21.6185L91.1906 21.4776C90.4256 20.7076 90.007 19.6602 90.031 18.576L89.831 18.5716ZM90.9408 15.5694C90.1753 16.3794 89.7744 17.4666 89.8311 18.5789L90.0309 18.5687C89.9769 17.511 90.3581 16.4772 91.0861 15.7068L90.9408 15.5694ZM93.8854 14.2888C92.77 14.2968 91.7063 14.7594 90.9408 15.5694L91.0861 15.7068C91.8142 14.9364 92.8259 14.4964 93.8869 14.4888L93.8854 14.2888ZM91.8561 18.4415C91.8054 17.8497 92.0022 17.2632 92.3999 16.8213L92.2513 16.6875C91.8166 17.1705 91.6014 17.8116 91.6568 18.4586L91.8561 18.4415ZM95.4705 16.8052L91.7182 18.3577L91.7947 18.5425L95.547 16.99L95.4705 16.8052ZM93.9602 16.1086C94.5703 16.069 95.1449 16.3974 95.4194 16.9425L95.5981 16.8526C95.2873 16.2357 94.6373 15.8642 93.9473 15.909L93.9602 16.1086ZM92.3999 16.8213C92.7977 16.3794 93.3609 16.1215 93.9559 16.1088L93.9516 15.9088C93.3015 15.9227 92.686 16.2045 92.2513 16.6875L92.3999 16.8213ZM87.2492 22.6001H89.0183V22.4001H87.2492V22.6001ZM87.1041 10.2042L87.1492 22.5004L87.3492 22.4997L87.3041 10.2034L87.1041 10.2042ZM89.0183 10.1038H87.2041V10.3038H89.0183V10.1038ZM89.1183 22.5001V10.2038H88.9183V22.5001H89.1183ZM84.2406 15.2226H84.173V15.4226H84.2406V15.2226ZM84.0957 14.6315L84.1408 15.329L84.3404 15.3161L84.2953 14.6186L84.0957 14.6315ZM85.9759 14.5251H84.1955V14.7251H85.9759V14.5251ZM86.0759 22.1513V14.6251H85.8759V22.1513H86.0759ZM81.9869 26.6052C83.0874 26.6052 84.1122 26.2845 84.8622 25.5603C85.6131 24.8353 86.0759 23.7182 86.0759 22.1513H85.8759C85.8759 23.6782 85.4259 24.738 84.7233 25.4164C84.0197 26.0958 83.0499 26.4052 81.9869 26.4052V26.6052ZM78.1872 24.0793C78.819 25.6168 80.3233 26.6164 81.9876 26.6052L81.9863 26.4052C80.4034 26.4159 78.973 25.4652 78.3722 24.0033L78.1872 24.0793ZM79.8409 23.2742L78.2408 23.9492L78.3186 24.1334L79.9187 23.4584L79.8409 23.2742ZM81.9877 24.7626C81.082 24.756 80.2773 24.1845 79.974 23.3328L79.7856 23.3999C80.1171 24.331 80.9967 24.9554 81.9862 24.9626L81.9877 24.7626ZM83.6276 24.1068C83.2103 24.5609 82.6095 24.8021 81.9933 24.7628L81.9806 24.9624C82.657 25.0056 83.3166 24.7408 83.7749 24.2421L83.6276 24.1068ZM84.1417 22.425C84.2339 23.0343 84.0449 23.6526 83.6276 24.1068L83.7749 24.2421C84.2332 23.7434 84.4407 23.0644 84.3395 22.3951L84.1417 22.425ZM84.1406 21.8026V22.4101H84.3406V21.8026H84.1406ZM84.173 21.9026H84.2406V21.7026H84.173V21.9026ZM81.9155 22.8587C82.8017 22.8927 83.6569 22.5298 84.2475 21.8692L84.0984 21.7359C83.5475 22.352 82.7499 22.6905 81.9232 22.6589L81.9155 22.8587ZM77.6276 18.5738C77.6276 20.9405 79.5492 22.8588 81.9193 22.8588V22.6588C79.6594 22.6588 77.8276 20.8297 77.8276 18.5738H77.6276ZM81.9193 14.2888C79.5492 14.2888 77.6276 16.2071 77.6276 18.5738H77.8276C77.8276 16.3179 79.6594 14.4888 81.9193 14.4888V14.2888ZM84.2466 15.2549C83.6498 14.6058 82.7969 14.2524 81.9152 14.2889L81.9235 14.4887C82.7464 14.4546 83.5425 14.7845 84.0993 15.3902L84.2466 15.2549ZM82.1108 21.0046C81.4972 20.9814 80.9178 20.7153 80.5007 20.2648L80.354 20.4006C80.8071 20.8902 81.4366 21.1792 82.1033 21.2045L82.1108 21.0046ZM80.5007 20.2648C80.0805 19.8107 79.8603 19.2073 79.8895 18.5898L79.6898 18.5803C79.658 19.2515 79.8973 19.9072 80.354 20.4006L80.5007 20.2648ZM79.8895 18.5799C79.8573 17.9582 80.0755 17.3495 80.4957 16.8894L80.348 16.7545C79.8918 17.254 79.6547 17.9151 79.6898 18.5902L79.8895 18.5799ZM80.4957 16.8894C80.9159 16.4294 81.503 16.1563 82.1262 16.1312L82.1181 15.9314C81.4417 15.9586 80.8043 16.2551 80.348 16.7545L80.4957 16.8894ZM82.1177 16.1312C82.7331 16.1584 83.3108 16.4345 83.7179 16.8959L83.8679 16.7635C83.4248 16.2614 82.7961 15.961 82.1266 15.9314L82.1177 16.1312ZM83.7179 16.8959C84.1251 17.3572 84.3266 17.9641 84.2761 18.5769L84.4755 18.5933C84.5304 17.9262 84.311 17.2657 83.8679 16.7635L83.7179 16.8959ZM84.2761 18.5933C84.3271 19.2098 84.119 19.8197 83.7018 20.2771L83.8496 20.4119C84.3042 19.9134 84.531 19.2487 84.4755 18.5768L84.2761 18.5933ZM83.7018 20.2771C83.291 20.7274 82.7138 20.99 82.1046 21.0046L82.1094 21.2045C82.773 21.1886 83.402 20.9026 83.8496 20.4119L83.7018 20.2771ZM106.101 10.1038H101.695V10.3038H106.101V10.1038ZM108.987 11.2024C108.21 10.4653 107.169 10.0697 106.098 10.1039L106.104 10.3038C107.122 10.2713 108.111 10.6472 108.849 11.3475L108.987 11.2024ZM110.235 14.0268C110.214 12.9566 109.764 11.9395 108.987 11.2024L108.849 11.3475C109.588 12.0478 110.015 13.0141 110.035 14.0308L110.235 14.0268ZM108.986 16.8515C109.764 16.1162 110.214 15.1001 110.235 14.0308L110.035 14.0268C110.015 15.0425 109.588 16.0077 108.849 16.7062L108.986 16.8515ZM106.097 17.9425C107.168 17.9798 108.208 17.5868 108.986 16.8515L108.849 16.7062C108.11 17.4047 107.121 17.7781 106.104 17.7426L106.097 17.9425ZM103.532 17.9426H106.101V17.7426H103.532V17.9426ZM103.632 22.5001V17.8426H103.432V22.5001H103.632ZM101.695 22.6001H103.532V22.4001H101.695V22.6001ZM101.595 10.2038V22.5001H101.795V10.2038H101.595ZM106.101 16.0326H103.532V16.2326H106.101V16.0326ZM106.146 16.0326H106.101V16.2326H106.146V16.0326ZM108.023 15.0728C107.629 15.7172 106.908 16.0879 106.153 16.0328L106.139 16.2323C106.968 16.2928 107.761 15.8855 108.194 15.1771L108.023 15.0728ZM108.023 12.9736C108.417 13.6181 108.417 14.4283 108.023 15.0728L108.194 15.1771C108.627 14.4686 108.627 13.5778 108.194 12.8693L108.023 12.9736ZM106.153 12.0135C106.908 11.9585 107.629 12.3291 108.023 12.9736L108.194 12.8693C107.761 12.1608 106.968 11.7536 106.139 11.8141L106.153 12.0135ZM103.532 12.0138H106.146V11.8138H103.532V12.0138ZM103.632 16.1326V11.9138H103.432V16.1326H103.632ZM117.465 14.2665C116.055 14.183 114.73 14.9422 114.091 16.1998L114.269 16.2904C114.872 15.1039 116.123 14.3873 117.453 14.4661L117.465 14.2665ZM117.504 14.2663H117.459V14.4663H117.504V14.2663ZM121.311 17.7648C121.323 16.6465 120.912 15.7683 120.222 15.171C119.534 14.5754 118.576 14.2663 117.504 14.2663V14.4663C118.539 14.4663 119.447 14.7647 120.091 15.3222C120.733 15.8781 121.122 16.6986 121.111 17.7628L121.311 17.7648ZM121.311 22.5001V17.7638H121.111V22.5001H121.311ZM119.442 22.6001H121.211V22.4001H119.442V22.6001ZM119.342 21.5326V22.5001H119.542V21.5326H119.342ZM117 22.8359C118.01 22.9259 118.986 22.4432 119.527 21.5859L119.358 21.4792C118.857 22.273 117.953 22.7201 117.017 22.6367L117 22.8359ZM114.839 22.1028C115.435 22.6321 116.221 22.8967 117.016 22.836L117.001 22.6366C116.259 22.6932 115.527 22.4465 114.971 21.9533L114.839 22.1028ZM113.855 20.0291C113.887 20.825 114.242 21.5735 114.839 22.1028L114.971 21.9533C114.416 21.46 114.085 20.7625 114.055 20.021L113.855 20.0291ZM117.504 17.1576C116.609 17.1576 115.7 17.4037 115.013 17.8844C114.323 18.3667 113.855 19.0871 113.855 20.0251H114.055C114.055 19.163 114.482 18.4997 115.128 18.0483C115.776 17.5952 116.642 17.3576 117.504 17.3576V17.1576ZM119.466 17.6413C118.86 17.3274 118.188 17.1616 117.505 17.1576L117.504 17.3576C118.155 17.3614 118.796 17.5195 119.374 17.8189L119.466 17.6413ZM119.32 17.6063V17.7301H119.52V17.6063H119.32ZM117.818 16.1654C118.569 16.3055 119.162 16.882 119.322 17.6273L119.518 17.5853C119.34 16.7609 118.685 16.1236 117.855 15.9688L117.818 16.1654ZM115.886 16.9863C116.305 16.349 117.067 16.0253 117.818 16.1654L117.855 15.9688C117.025 15.8139 116.183 16.1717 115.719 16.8764L115.886 16.9863ZM114.141 16.3372L115.764 17.0234L115.842 16.8392L114.219 16.153L114.141 16.3372ZM117.234 21.0163C116.949 21.0163 116.607 20.9434 116.34 20.7855C116.074 20.629 115.891 20.396 115.891 20.0701H115.691C115.691 20.4866 115.931 20.7767 116.238 20.9577C116.542 21.1373 116.921 21.2163 117.234 21.2163V21.0163ZM117.255 21.008L117.21 21.0193L117.258 21.2133L117.303 21.2021L117.255 21.008ZM119.343 19.1131C119.216 20.1666 118.338 20.9703 117.276 21.0051L117.282 21.205C118.443 21.1669 119.403 20.2888 119.542 19.137L119.343 19.1131ZM117.746 18.8537C118.319 18.823 118.889 18.9474 119.396 19.2136L119.489 19.0365C118.95 18.7535 118.344 18.6213 117.736 18.654L117.746 18.8537ZM115.891 20.0701C115.891 19.6426 116.125 19.3428 116.477 19.1447C116.832 18.9447 117.301 18.8538 117.741 18.8538V18.6538C117.279 18.6538 116.773 18.7486 116.379 18.9704C115.982 19.1942 115.691 19.5525 115.691 20.0701H115.891ZM127.609 14.5883L125.502 19.9208L125.688 19.9943L127.795 14.6618L127.609 14.5883ZM129.741 14.5251H127.702V14.7251H129.741V14.5251ZM124.83 26.2634L129.833 14.6647L129.65 14.5855L124.647 26.1842L124.83 26.2634ZM122.823 26.3238H124.738V26.1238H122.823V26.3238ZM124.557 22.0323L122.731 26.1836L122.914 26.2641L124.74 22.1128L124.557 22.0323ZM121.278 14.6654L124.557 22.1129L124.74 22.0323L121.461 14.5848L121.278 14.6654ZM123.341 14.5251H121.369V14.7251H123.341V14.5251ZM125.62 19.9196L123.434 14.5871L123.249 14.663L125.435 19.9955L125.62 19.9196ZM125.595 19.8576H125.527V20.0576H125.595V19.8576ZM111.149 22.6001H112.986V22.4001H111.149V22.6001ZM111.049 10.2038V22.5001H111.249V10.2038H111.049ZM112.986 10.1038H111.149V10.3038H112.986V10.1038ZM113.086 22.5001V10.2038H112.886V22.5001H113.086ZM53.1562 31.3193C54.3831 32.6869 54.3831 34.7569 53.1562 36.1245L53.3051 36.2581C54.6001 34.8145 54.6001 32.6293 53.3051 31.1858L53.1562 31.3193ZM50.7114 30.3962C51.6216 30.3525 52.5089 30.6887 53.1609 31.3242L53.3005 31.1809C52.6088 30.5067 51.6674 30.15 50.7018 30.1964L50.7114 30.3962ZM48.5544 30.3963H50.7066V30.1963H48.5544V30.3963ZM48.6544 37.1251V30.2963H48.4544V37.1251H48.6544ZM50.7066 37.0251H48.5544V37.2251H50.7066V37.0251ZM53.1615 36.1191C52.5059 36.7466 51.619 37.0747 50.7121 37.0252L50.7011 37.2249C51.6633 37.2774 52.6042 36.9294 53.2998 36.2635L53.1615 36.1191ZM59.2493 30.2963V31.1401H59.4493V30.2963H59.2493ZM55.3491 30.3963H59.3493V30.1963H55.3491V30.3963ZM55.4491 37.1251V30.2963H55.2491V37.1251H55.4491ZM59.3493 37.0251H55.3491V37.2251H59.3493V37.0251ZM59.2493 36.3038V37.1251H59.4493V36.3038H59.2493ZM56.228 36.4038H59.3493V36.2038H56.228V36.4038ZM56.128 34.1326V36.3038H56.328V34.1326H56.128ZM59.0451 34.0326H56.228V34.2326H59.0451V34.0326ZM58.9451 33.3113V34.1326H59.1451V33.3113H58.9451ZM56.228 33.4113H59.0451V33.2113H56.228V33.4113ZM56.128 31.1401V33.3113H56.328V31.1401H56.128ZM59.3493 31.0401H56.228V31.2401H59.3493V31.0401ZM61.6537 30.3498L65.0341 35.6823L65.2031 35.5753L61.8226 30.2428L61.6537 30.3498ZM60.6113 30.3963H61.7381V30.1963H60.6113V30.3963ZM60.7113 37.1251V30.2963H60.5113V37.1251H60.7113ZM61.5917 37.0251H60.6113V37.2251H61.5917V37.0251ZM61.4917 31.5001V37.1251H61.6917V31.5001H61.4917ZM65.1697 37.0723L61.6766 31.4473L61.5067 31.5528L64.9998 37.1778L65.1697 37.0723ZM65.9975 37.0251H65.0848V37.2251H65.9975V37.0251ZM65.8975 30.2963V37.1251H66.0975V30.2963H65.8975ZM65.1186 30.3963H65.9975V30.1963H65.1186V30.3963ZM65.2186 35.6288V30.2963H65.0186V35.6288H65.2186ZM72.293 30.3092L74.8847 37.1604L75.0718 37.0897L72.4801 30.2384L72.293 30.3092ZM71.395 30.3738H72.3866V30.1738H71.395V30.3738ZM68.9081 37.1603L71.4886 30.309L71.3014 30.2386L68.721 37.0898L68.9081 37.1603ZM69.7836 37.0251H68.8146V37.2251H69.7836V37.0251ZM70.3658 35.2346L69.6897 37.0908L69.8776 37.1593L70.5537 35.303L70.3658 35.2346ZM73.3444 35.1688H70.4597V35.3688H73.3444V35.1688ZM74.0922 37.0918L73.4387 35.2356L73.25 35.302L73.9036 37.1583L74.0922 37.0918ZM74.9782 37.0251H73.9979V37.2251H74.9782V37.0251ZM76.6586 30.2963V36.3038H76.8586V30.2963H76.6586ZM75.8684 30.3963H76.7586V30.1963H75.8684V30.3963ZM75.9684 37.1251V30.2963H75.7684V37.1251H75.9684ZM79.7221 37.0251H75.8684V37.2251H79.7221V37.0251ZM79.6222 36.3038V37.1251H79.8221V36.3038H79.6222ZM76.7586 36.4038H79.7221V36.2038H76.7586V36.4038ZM81.4589 30.2963V37.1251H81.6589V30.2963H81.4589ZM80.6799 30.3963H81.5589V30.1963H80.6799V30.3963ZM80.7799 37.1251V30.2963H80.5799V37.1251H80.7799ZM81.5589 37.0251H80.6799V37.2251H81.5589V37.0251ZM84.1788 30.3498L87.5592 35.6823L87.7281 35.5753L84.3477 30.2428L84.1788 30.3498ZM83.1364 30.3963H84.2632V30.1963H83.1364V30.3963ZM83.2364 37.1251V30.2963H83.0364V37.1251H83.2364ZM84.1167 37.0251H83.1364V37.2251H84.1167V37.0251ZM84.0167 31.5001V37.1251H84.2167V31.5001H84.0167ZM87.6948 37.0723L84.2017 31.4473L84.0318 31.5528L87.5249 37.1778L87.6948 37.0723ZM88.5226 37.0251H87.6099V37.2251H88.5226V37.0251ZM88.4226 30.2963V37.1251H88.6226V30.2963H88.4226ZM87.6437 30.3963H88.5226V30.1963H87.6437V30.3963ZM87.7437 35.6288V30.2963H87.5437V35.6288H87.7437ZM50.7066 31.0401H49.4333V31.2401H50.7066V31.0401ZM52.6433 31.7945C52.1374 31.2713 51.4274 30.9957 50.7005 31.0402L50.7127 31.2399C51.3813 31.1989 52.0343 31.4524 52.4996 31.9335L52.6433 31.7945ZM53.3302 33.7597C53.4003 33.0358 53.1493 32.3176 52.6433 31.7945L52.4996 31.9335C52.9648 32.4145 53.1956 33.0749 53.1311 33.7404L53.3302 33.7597ZM52.6144 35.6578C53.1183 35.1525 53.3793 34.4546 53.3304 33.7432L53.1309 33.7569C53.1758 34.4107 52.9359 35.0521 52.4728 35.5166L52.6144 35.6578ZM50.7002 36.3811C51.4128 36.4267 52.1105 36.1631 52.6144 35.6578L52.4728 35.5166C52.0096 35.981 51.3682 36.2234 50.713 36.1815L50.7002 36.3811ZM49.4333 36.3813H50.7066V36.1813H49.4333V36.3813ZM49.3333 31.1401V36.2813H49.5333V31.1401H49.3333ZM71.7855 31.3196L70.6587 34.4133L70.8466 34.4818L71.9735 31.388L71.7855 31.3196ZM73.1003 34.4133L71.9735 31.3196L71.7855 31.388L72.9124 34.4818L73.1003 34.4133ZM70.7527 34.5476H73.0063V34.3476H70.7527V34.5476ZM47.0233 30.2963V32.4563H47.2233V30.2963H47.0233ZM46.312 30.3963H47.1233V30.1963H46.312V30.3963ZM46.412 32.4563V30.2963H46.212V32.4563H46.412ZM47.1233 32.3563H46.312V32.5563H47.1233V32.3563Z" fill="white"/>
<defs>
<linearGradient id="paint0_linear_8498_3592" x1="19.6422" y1="9.27488" x2="7.70239" y2="21.234" gradientUnits="userSpaceOnUse">
<stop stop-color="#00A0FF"/>
<stop offset="0.01" stop-color="#00A1FF"/>
<stop offset="0.26" stop-color="#00BEFF"/>
<stop offset="0.51" stop-color="#00D2FF"/>
<stop offset="0.76" stop-color="#00DFFF"/>
<stop offset="1" stop-color="#00E3FF"/>
</linearGradient>
<linearGradient id="paint1_linear_8498_3592" x1="37.6312" y1="21.9761" x2="10.3735" y2="21.9761" gradientUnits="userSpaceOnUse">
<stop stop-color="#FFE000"/>
<stop offset="0.41" stop-color="#FFBD00"/>
<stop offset="0.78" stop-color="#FFA500"/>
<stop offset="1" stop-color="#FF9C00"/>
</linearGradient>
<linearGradient id="paint2_linear_8498_3592" x1="27.4897" y1="26.4465" x2="7.06315" y2="46.897" gradientUnits="userSpaceOnUse">
<stop stop-color="#FF3A44"/>
<stop offset="1" stop-color="#C31162"/>
</linearGradient>
<linearGradient id="paint3_linear_8498_3592" x1="7.73657" y1="5.77584" x2="16.8527" y2="14.9067" gradientUnits="userSpaceOnUse">
<stop stop-color="#32A071"/>
<stop offset="0.07" stop-color="#2DA771"/>
<stop offset="0.48" stop-color="#15CF74"/>
<stop offset="0.8" stop-color="#06E775"/>
<stop offset="1" stop-color="#00F076"/>
</linearGradient>
</defs>
</svg>
